<svg width="19" height="18" viewBox="0 0 19 18" fill="none" xmlns="http://www.w3.org/2000/svg">
<g clip-path="url(#clip0_34_181)">
<path d="M18.7312 0.810059C8.7902 0.810059 1.2312 7.94911 1.2312 17.3378H9.7522C9.7522 12.6548 13.7732 8.85767 18.7312 8.85767V0.810059Z" fill="#8767AC"/>
<path d="M0.731201 17.3374H2.2522C2.2522 8.74811 9.6192 1.78472 18.7107 1.77433V0.33783C8.7787 0.348691 0.731201 7.95525 0.731201 17.3374Z" fill="#EB2027"/>
<path d="M2.27271 17.3378H3.77271C3.77271 9.53106 10.4677 3.20187 18.7312 3.19148V1.77481C9.6397 1.7852 2.27271 8.74859 2.27271 17.3378Z" fill="#F19020"/>
<path d="M3.77271 17.3378H5.27271C5.27271 10.3135 11.2962 4.61852 18.7312 4.60813V3.19147C10.4677 3.20186 3.77271 9.53105 3.77271 17.3378Z" fill="#FFCB4C"/>
<path d="M5.27271 17.3378H6.77271C6.77271 11.0965 12.1252 6.03518 18.7312 6.02479V4.60812C11.2962 4.61851 5.27271 10.3135 5.27271 17.3378Z" fill="#5C903F"/>
<path d="M6.77271 17.3378H8.27271C8.27271 11.8789 12.9537 7.45234 18.7312 7.44195V6.02481C12.1252 6.0352 6.77271 11.0965 6.77271 17.3378Z" fill="#226798"/>
</g>
<defs>
<clipPath id="clip0_34_181">
<rect width="18" height="17" fill="white" transform="translate(0.731201 0.33783)"/>
</clipPath>
</defs>
</svg>
